<?xml version="1.0" encoding="utf-8"?><!-- Uploaded to: SVG Repo, www.svgrepo.com, Generator: SVG Repo Mixer Tools -->
<svg fill="#000000" width="800px" height="800px" viewBox="0 0 24 24" id="football-ball" data-name="Line Color" xmlns="http://www.w3.org/2000/svg" class="icon line-color"><polyline id="secondary" points="9.67 3.31 12 5 14.33 3.31" style="fill: none; stroke: rgb(44, 169, 188); stroke-linecap: round; stroke-linejoin: round; stroke-width: 2;"></polyline><polyline id="secondary-2" data-name="secondary" points="3.02 11.53 5.34 9.84 4.46 7.1" style="fill: none; stroke: rgb(44, 169, 188); stroke-linecap: round; stroke-linejoin: round; stroke-width: 2;"></polyline><polyline id="secondary-3" data-name="secondary" points="18 18 16.08 17.96 15.35 20.34" style="fill: none; stroke: rgb(44, 169, 188); stroke-linecap: round; stroke-linejoin: round; stroke-width: 2;"></polyline><polyline id="secondary-4" data-name="secondary" points="6 18 7.92 17.96 8.65 20.34" style="fill: none; stroke: rgb(44, 169, 188); stroke-linecap: round; stroke-linejoin: round; stroke-width: 2;"></polyline><polyline id="secondary-5" data-name="secondary" points="19.55 7.1 18.66 9.84 20.98 11.53" style="fill: none; stroke: rgb(44, 169, 188); stroke-linecap: round; stroke-linejoin: round; stroke-width: 2;"></polyline><path id="secondary-6" data-name="secondary" d="M12,8V5M8.41,10.65,5.34,9.84M9.84,15,7.89,18m6.27-3,1.95,3m-.61-7.33,3.16-.83M12,8,8.5,10.67,9.84,15h4.32l1.34-4.33Z" style="fill: none; stroke: rgb(44, 169, 188); stroke-linecap: round; stroke-linejoin: round; stroke-width: 2;"></path><circle id="primary" cx="12" cy="12" r="9" style="fill: none; stroke: rgb(0, 0, 0); stroke-linecap: round; stroke-linejoin: round; stroke-width: 2;"></circle></svg>