<?xml version="1.0" encoding="iso-8859-1"?>
<!-- Uploaded to: SVG Repo, www.svgrepo.com, Generator: SVG Repo Mixer Tools -->
<svg version="1.1" id="Layer_1" xmlns="http://www.w3.org/2000/svg" xmlns:xlink="http://www.w3.org/1999/xlink" 
	 viewBox="0 0 512 512" xml:space="preserve">
<polygon style="fill:#ABECEC;" points="512,112.527 512,348.835 478.242,348.835 433.231,56.264 "/>
<polygon style="fill:#D5F6F5;" points="478.242,90.022 478.242,348.835 0,348.835 0,0 399.473,0 "/>
<g>
	<path style="fill:#ABECEC;" d="M476.742,274.755h-25.319v-90.96h25.319c4.662,0,8.44-3.778,8.44-8.44s-3.778-8.44-8.44-8.44
		h-25.319V59.077h-264.44V33.758c0-4.662-3.779-8.44-8.44-8.44s-8.44,3.778-8.44,8.44v25.319H74.456V33.758
		c0-4.662-3.779-8.44-8.44-8.44s-8.44,3.778-8.44,8.44v25.319H33.758c-4.661,0-8.44,3.778-8.44,8.44s3.779,8.44,8.44,8.44h23.819
		v90.959H33.758c-4.661,0-8.44,3.778-8.44,8.44s3.779,8.44,8.44,8.44h23.819v90.96H32.258c-4.661,0-8.44,3.778-8.44,8.44
		c0,4.662,3.779,8.44,8.44,8.44h25.319v25.319c0,4.662,3.779,8.44,8.44,8.44s8.44-3.778,8.44-8.44v-25.319h360.088v25.319
		c0,4.662,3.778,8.44,8.44,8.44c4.662,0,8.44-3.778,8.44-8.44v-25.319h25.319c4.662,0,8.44-3.778,8.44-8.44
		S481.404,274.755,476.742,274.755z M74.456,75.956h95.648v90.959H74.456C74.456,166.915,74.456,75.956,74.456,75.956z
		 M434.544,274.755H74.456v-90.96h95.648v25.319c0,4.662,3.779,8.44,8.44,8.44s8.44-3.778,8.44-8.44v-25.319h247.56V274.755z
		 M186.984,166.915V75.956h247.56v90.959L186.984,166.915L186.984,166.915z"/>
	<path style="fill:#ABECEC;" d="M406.975,202.861H216.053c-4.661,0-8.44,3.778-8.44,8.44c0,4.662,3.779,8.44,8.44,8.44h190.922
		c4.662,0,8.44-3.778,8.44-8.44C415.414,206.639,411.637,202.861,406.975,202.861z"/>
	<path style="fill:#ABECEC;" d="M311.701,238.809h-95.648c-4.661,0-8.44,3.778-8.44,8.44c0,4.662,3.779,8.44,8.44,8.44h95.648
		c4.662,0,8.44-3.778,8.44-8.44C320.141,242.587,316.363,238.809,311.701,238.809z"/>
</g>
<polygon style="fill:#272727;" points="74.471,452.923 51.965,481.64 0,452.923 "/>
<polygon style="fill:#4D4D4D;" points="51.965,424.206 74.471,444.72 51.965,465.234 0,452.923 "/>
<polygon style="fill:#FEA680;" points="129.407,465.234 106.901,512 51.965,481.64 51.965,465.234 "/>
<polygon style="fill:#FFC1A6;" points="106.901,478.242 51.965,465.234 51.965,424.206 106.901,393.846 129.407,436.044 "/>
<path style="fill:#FE5F1A;" d="M396.659,478.242L419.165,512h33.758C485.545,512,512,485.545,512,452.923L396.659,478.242z"/>
<path style="fill:#FE834D;" d="M452.923,393.846c32.633,0,59.077,26.444,59.077,59.077c0,13.987-26.455,25.319-59.077,25.319
	h-56.264l22.505-84.081v-0.315H452.923z"/>
<polygon style="fill:#DFC136;" points="407.912,455.736 385.407,512 106.901,512 106.901,478.242 "/>
<polygon style="fill:#FEDC3D;" points="407.912,430.418 385.407,478.242 106.901,478.242 106.901,452.923 "/>
<polygon style="fill:#FFE777;" points="385.407,394.161 407.912,452.923 106.901,452.923 106.901,393.846 385.407,393.846 "/>
<polygon style="fill:#B9B9B9;" points="385.407,478.242 385.407,512 419.165,512 419.165,478.242 402.286,455.736 "/>
<rect x="385.407" y="393.846" style="fill:#DCDCDC;" width="33.758" height="84.396"/>
<polygon style="fill:#81E3E2;" points="399.473,0 399.473,112.527 512,112.527 "/>
</svg>